<svg width="109" height="18" viewBox="0 0 109 18" fill="none" xmlns="http://www.w3.org/2000/svg">
<path d="M23.543 13.7717L22.2528 4.83501C21.9214 2.53668 19.921 0.833344 17.5656 0.833344H6.84175C4.4863 0.833344 2.48594 2.53668 2.15452 4.83501L0.864342 13.7717C0.60394 15.5683 2.01248 17.1667 3.84713 17.1667C4.65201 17.1667 5.40954 16.8517 5.97769 16.2917L8.65273 13.6667H15.7546L18.4178 16.2917C18.9859 16.8517 19.7553 17.1667 20.5484 17.1667C22.3948 17.1667 23.8034 15.5683 23.543 13.7717ZM11.02 7.83334H8.65273V10.1667H7.46908V7.83334H5.10179V6.66668H7.46908V4.33334H8.65273V6.66668H11.02V7.83334ZM15.7546 6.66668C15.1036 6.66668 14.571 6.14168 14.571 5.50001C14.571 4.85834 15.1036 4.33334 15.7546 4.33334C16.4056 4.33334 16.9382 4.85834 16.9382 5.50001C16.9382 6.14168 16.4056 6.66668 15.7546 6.66668ZM18.1219 10.1667C17.4709 10.1667 16.9382 9.64168 16.9382 9.00001C16.9382 8.35834 17.4709 7.83334 18.1219 7.83334C18.7729 7.83334 19.3055 8.35834 19.3055 9.00001C19.3055 9.64168 18.7729 10.1667 18.1219 10.1667Z" fill="#2A7AE4"/>
<path d="M81.7731 12.92C80.9682 13.7134 80.0307 14.11 78.9607 14.11C78.2979 14.11 77.6729 13.9794 77.0858 13.718C76.5082 13.4567 76.0016 13.0974 75.566 12.64C75.1399 12.1827 74.799 11.646 74.5434 11.03C74.2972 10.4047 74.1741 9.73271 74.1741 9.01404C74.1741 8.33271 74.2972 7.69337 74.5434 7.09604C74.799 6.48937 75.1447 5.96204 75.5802 5.51404C76.0253 5.0567 76.5461 4.69737 77.1427 4.43604C77.7392 4.16537 78.3879 4.03004 79.0886 4.03004C80.0355 4.03004 80.8451 4.22604 81.5174 4.61804C82.1992 5.01004 82.7105 5.53737 83.0514 6.20004L81.5884 7.26404C81.3328 6.76937 80.9729 6.39137 80.5089 6.13004C80.0544 5.8687 79.5573 5.73804 79.0176 5.73804C78.5914 5.73804 78.1985 5.8267 77.8386 6.00404C77.4883 6.18137 77.1853 6.42404 76.9296 6.73204C76.6834 7.04004 76.4893 7.39471 76.3472 7.79604C76.2147 8.19737 76.1484 8.62204 76.1484 9.07004C76.1484 9.53671 76.2241 9.97537 76.3757 10.386C76.5272 10.7874 76.7355 11.1374 77.0006 11.436C77.2658 11.7347 77.5782 11.9727 77.9381 12.15C78.3074 12.318 78.7051 12.402 79.1312 12.402C80.1065 12.402 80.9871 11.9494 81.7731 11.044V10.344H79.7419V8.93004H83.3923V14.04H81.7731V12.92Z" fill="#464646"/>
<path d="M88.3297 14.18C87.7331 14.18 87.1934 14.082 86.7104 13.886C86.2275 13.6807 85.8156 13.4054 85.4747 13.06C85.1338 12.7147 84.8687 12.3134 84.6793 11.856C84.4994 11.3987 84.4094 10.918 84.4094 10.414C84.4094 9.89137 84.4994 9.40137 84.6793 8.94404C84.8592 8.47737 85.1196 8.07137 85.4605 7.72604C85.8014 7.37137 86.2133 7.09137 86.6962 6.88604C87.1886 6.68071 87.7378 6.57804 88.3439 6.57804C88.9499 6.57804 89.4896 6.68071 89.9631 6.88604C90.446 7.09137 90.8532 7.36671 91.1846 7.71204C91.5255 8.05737 91.7812 8.45871 91.9516 8.91604C92.1315 9.37337 92.2215 9.84937 92.2215 10.344C92.2215 10.4654 92.2168 10.582 92.2073 10.694C92.2073 10.806 92.1978 10.8994 92.1789 10.974H86.4264C86.4548 11.2634 86.5258 11.52 86.6394 11.744C86.753 11.968 86.8998 12.1594 87.0797 12.318C87.2596 12.4767 87.4632 12.598 87.6905 12.682C87.9178 12.766 88.1545 12.808 88.4007 12.808C88.7794 12.808 89.1345 12.7194 89.466 12.542C89.8069 12.3554 90.0388 12.1127 90.1619 11.814L91.7954 12.262C91.5208 12.822 91.0805 13.284 90.4744 13.648C89.8779 14.0027 89.1629 14.18 88.3297 14.18ZM90.2614 9.75604C90.214 9.20537 90.0057 8.76671 89.6364 8.44004C89.2766 8.10404 88.8363 7.93604 88.3155 7.93604C88.0598 7.93604 87.8183 7.98271 87.5911 8.07604C87.3733 8.16004 87.1792 8.28137 87.0087 8.44004C86.8383 8.59871 86.6962 8.79004 86.5826 9.01404C86.4784 9.23804 86.4169 9.48537 86.3979 9.75604H90.2614Z" fill="#464646"/>
<path d="M96.8325 14.18C96.2359 14.18 95.6962 14.082 95.2133 13.886C94.7303 13.6807 94.3184 13.4054 93.9775 13.06C93.6366 12.7147 93.3715 12.3134 93.1821 11.856C93.0022 11.3987 92.9123 10.918 92.9123 10.414C92.9123 9.89137 93.0022 9.40137 93.1821 8.94404C93.362 8.47737 93.6224 8.07137 93.9633 7.72604C94.3042 7.37137 94.7161 7.09137 95.1991 6.88604C95.6915 6.68071 96.2407 6.57804 96.8467 6.57804C97.4527 6.57804 97.9925 6.68071 98.4659 6.88604C98.9488 7.09137 99.356 7.36671 99.6874 7.71204C100.028 8.05737 100.284 8.45871 100.454 8.91604C100.634 9.37337 100.724 9.84937 100.724 10.344C100.724 10.4654 100.72 10.582 100.71 10.694C100.71 10.806 100.701 10.8994 100.682 10.974H94.9292C94.9576 11.2634 95.0286 11.52 95.1422 11.744C95.2559 11.968 95.4026 12.1594 95.5826 12.318C95.7625 12.4767 95.9661 12.598 96.1933 12.682C96.4206 12.766 96.6573 12.808 96.9035 12.808C97.2823 12.808 97.6374 12.7194 97.9688 12.542C98.3097 12.3554 98.5417 12.1127 98.6648 11.814L100.298 12.262C100.024 12.822 99.5833 13.284 98.9773 13.648C98.3807 14.0027 97.6658 14.18 96.8325 14.18ZM98.7642 9.75604C98.7169 9.20537 98.5085 8.76671 98.1392 8.44004C97.7794 8.10404 97.3391 7.93604 96.8183 7.93604C96.5626 7.93604 96.3212 7.98271 96.0939 8.07604C95.8761 8.16004 95.682 8.28137 95.5115 8.44004C95.3411 8.59871 95.1991 8.79004 95.0854 9.01404C94.9813 9.23804 94.9197 9.48537 94.9008 9.75604H98.7642Z" fill="#464646"/>
<path d="M106.969 14.04L104.81 10.862L103.787 11.856V14.04H101.884V3.82004H103.787V10.022L106.77 6.71804H108.801L106.031 9.82604L109 14.04H106.969Z" fill="#464646"/>
<path d="M35.478 14V6.916L32.552 12.292H31.628L28.688 6.916V14H27.12V4.06H28.8L32.09 10.136L35.38 4.06H37.06V14H35.478ZM39.0356 11.158V6.678H40.5756V10.85C40.5756 11.5033 40.6923 11.998 40.9256 12.334C41.1683 12.6607 41.5183 12.824 41.9756 12.824C42.265 12.824 42.545 12.7633 42.8156 12.642C43.0956 12.5207 43.3476 12.3433 43.5716 12.11C43.805 11.8673 43.9916 11.578 44.1316 11.242V6.678H45.6716V12.264C45.6716 12.4413 45.7043 12.5673 45.7696 12.642C45.835 12.7167 45.9423 12.7587 46.0916 12.768V14C45.933 14.028 45.8023 14.0467 45.6996 14.056C45.597 14.0653 45.499 14.07 45.4056 14.07C45.1256 14.07 44.8923 13.9953 44.7056 13.846C44.519 13.6873 44.4116 13.4867 44.3836 13.244L44.3556 12.516C44.029 13.048 43.6043 13.454 43.0816 13.734C42.559 14.0047 41.985 14.14 41.3596 14.14C40.5943 14.14 40.0156 13.888 39.6236 13.384C39.2316 12.88 39.0356 12.138 39.0356 11.158ZM54.2029 14H52.6629V9.898C52.6629 9.21667 52.5509 8.71733 52.3269 8.4C52.1122 8.08267 51.7902 7.924 51.3609 7.924C51.0622 7.924 50.7636 7.99867 50.4649 8.148C50.1756 8.29733 49.9142 8.50267 49.6809 8.764C49.4476 9.016 49.2796 9.31 49.1769 9.646V14H47.6369V6.678H49.0369V8.148C49.2236 7.82133 49.4662 7.54133 49.7649 7.308C50.0729 7.06533 50.4182 6.87867 50.8009 6.748C51.1836 6.61733 51.5896 6.552 52.0189 6.552C52.4576 6.552 52.8169 6.63133 53.0969 6.79C53.3862 6.94867 53.6102 7.168 53.7689 7.448C53.9369 7.71867 54.0489 8.036 54.1049 8.4C54.1702 8.75467 54.2029 9.13267 54.2029 9.534V14ZM55.5284 10.346C55.5284 9.646 55.6684 9.01133 55.9484 8.442C56.2377 7.86333 56.6297 7.406 57.1244 7.07C57.6191 6.72467 58.1884 6.552 58.8324 6.552C59.3924 6.552 59.8964 6.69667 60.3444 6.986C60.8017 7.27533 61.1564 7.63467 61.4084 8.064V3.78H62.9484V12.264C62.9484 12.4413 62.9811 12.5673 63.0464 12.642C63.1117 12.7167 63.2191 12.7587 63.3684 12.768V14C63.0791 14.0467 62.8551 14.07 62.6964 14.07C62.4071 14.07 62.1597 13.986 61.9544 13.818C61.7584 13.65 61.6557 13.4493 61.6464 13.216L61.6324 12.67C61.3524 13.1367 60.9744 13.5007 60.4984 13.762C60.0224 14.014 59.5277 14.14 59.0144 14.14C58.5104 14.14 58.0437 14.042 57.6144 13.846C57.1944 13.65 56.8257 13.3747 56.5084 13.02C56.2004 12.6653 55.9577 12.2593 55.7804 11.802C55.6124 11.3447 55.5284 10.8593 55.5284 10.346ZM61.4084 11.368V9.45C61.3057 9.15133 61.1377 8.88533 60.9044 8.652C60.6804 8.40933 60.4237 8.218 60.1344 8.078C59.8544 7.938 59.5744 7.868 59.2944 7.868C58.9677 7.868 58.6691 7.938 58.3984 8.078C58.1371 8.218 57.9084 8.40467 57.7124 8.638C57.5257 8.87133 57.3811 9.13733 57.2784 9.436C57.1757 9.73467 57.1244 10.0473 57.1244 10.374C57.1244 10.71 57.1804 11.0273 57.2924 11.326C57.4044 11.6153 57.5631 11.8767 57.7684 12.11C57.9831 12.334 58.2257 12.5113 58.4964 12.642C58.7764 12.7633 59.0797 12.824 59.4064 12.824C59.6117 12.824 59.8171 12.7867 60.0224 12.712C60.2371 12.6373 60.4377 12.5347 60.6244 12.404C60.8204 12.2733 60.9837 12.1193 61.1144 11.942C61.2544 11.7647 61.3524 11.5733 61.4084 11.368ZM68.1945 14.14C67.6158 14.14 67.0978 14.042 66.6405 13.846C66.1831 13.6407 65.7865 13.3607 65.4505 13.006C65.1238 12.6513 64.8718 12.25 64.6945 11.802C64.5171 11.3447 64.4285 10.8593 64.4285 10.346C64.4285 9.83267 64.5171 9.34733 64.6945 8.89C64.8718 8.43267 65.1238 8.03133 65.4505 7.686C65.7865 7.33133 66.1831 7.056 66.6405 6.86C67.1071 6.65467 67.6251 6.552 68.1945 6.552C68.7638 6.552 69.2771 6.65467 69.7345 6.86C70.2011 7.056 70.5978 7.33133 70.9245 7.686C71.2605 8.03133 71.5171 8.43267 71.6945 8.89C71.8718 9.34733 71.9605 9.83267 71.9605 10.346C71.9605 10.8593 71.8718 11.3447 71.6945 11.802C71.5171 12.25 71.2605 12.6513 70.9245 13.006C70.5978 13.3607 70.2011 13.6407 69.7345 13.846C69.2771 14.042 68.7638 14.14 68.1945 14.14ZM66.0105 10.36C66.0105 10.8267 66.1085 11.2467 66.3045 11.62C66.5005 11.9933 66.7618 12.2873 67.0885 12.502C67.4151 12.7167 67.7838 12.824 68.1945 12.824C68.5958 12.824 68.9598 12.7167 69.2865 12.502C69.6225 12.278 69.8885 11.9793 70.0845 11.606C70.2805 11.2233 70.3785 10.8033 70.3785 10.346C70.3785 9.87933 70.2805 9.45933 70.0845 9.086C69.8885 8.71267 69.6225 8.41867 69.2865 8.204C68.9598 7.98 68.5958 7.868 68.1945 7.868C67.7838 7.868 67.4151 7.98 67.0885 8.204C66.7618 8.428 66.5005 8.72667 66.3045 9.1C66.1085 9.464 66.0105 9.884 66.0105 10.36Z" fill="#2A7AE4"/>
</svg>
