<svg width="200" height="200" viewBox="0 0 200 200" fill="none" xmlns="http://www.w3.org/2000/svg">
<rect width="200" height="200" rx="59" fill="white"/>
<path d="M20.1875 200C14.4375 200 9.6375 198.075 5.7875 194.225C1.92916 190.367 0 185.563 0 179.813V20.1875C0 14.4375 1.92916 9.6375 5.7875 5.7875C9.6375 1.92916 14.4375 0 20.1875 0H179.813C185.563 0 190.363 1.92916 194.213 5.7875C198.071 9.6375 200 14.4375 200 20.1875V179.813C200 185.563 198.075 190.363 194.225 194.213C190.367 198.071 185.563 200 179.813 200H20.1875ZM43.75 156.25H158.175L122.837 109.125L90.15 150.475L68.275 124.038L43.75 156.25Z" fill="#CCCCCC"/>
</svg>
